<?xml version="1.0"?><svg width="355.68744" height="195.43748" xmlns="http://www.w3.org/2000/svg">
 <defs>
  <filter height="1.263641" y="-0.13182" width="1.130966" x="-0.065483" id="filter3802">
   <feGaussianBlur id="feGaussianBlur3804" stdDeviation="8.688477"/>
  </filter>
 </defs>
 <metadata id="metadata4093">image/svg+xml</metadata>
 <g>
  <title>Layer 1</title>
  <g id="layer1">
   <g id="g3885">
    <path fill="#f0f4f8" fill-rule="nonzero" stroke-width="3" stroke-linecap="round" stroke-linejoin="bevel" stroke-miterlimit="4" stroke-dashoffset="0" d="m241.812531,-0.000031c-32.504089,0 -60.418304,14.708618 -72.53125,35.687469c-8.907166,-3.612732 -19.12796,-5.687469 -29.96875,-5.687469c-34.725525,0 -62.90625,21.084015 -62.90625,47.031219c0,2.250671 0.215027,4.458466 0.625,6.625c-42.888641,1.242462 -77.03125,22.259735 -77.03125,48c0,26.538666 36.311035,48.09375 81.0625,48.09375c9.280212,0 18.193573,-0.951263 26.5,-2.65625c16.881653,11.253937 41.465759,18.34375 68.84375,18.34375c39.338074,0 72.946716,-14.62851 86.15625,-35.21875c9.191467,4.055634 19.903442,6.40625 31.34375,6.40625c34.098755,0 61.781189,-20.677368 61.781189,-46.15625c0,-19.436218 -16.130737,-36.074097 -38.906189,-42.875c2.59375,-5.842041 4.03125,-12.072723 4.03125,-18.5625c0,-32.575989 -35.403015,-59.031219 -79,-59.031219z" id="path2740"/>
    <path fill="#ffffff" fill-rule="nonzero" stroke="#ffffff" stroke-width="3" stroke-linecap="round" stroke-linejoin="bevel" stroke-miterlimit="4" stroke-dashoffset="0" filter="url(#filter3802)" id="path2782" d="m245.179672,16.31794c-26.887878,0 -48.60199,12.858612 -56.40625,26.375c-4.647949,8.045349 -14.51593,11.432465 -23.125,7.9375c-6.611053,-2.681427 -14.503235,-4.3125 -22.96875,-4.3125c-13.594971,0 -25.559875,4.265015 -33.3125,10.0625c-7.752625,5.797455 -10.96875,12.109894 -10.96875,18.34375c0,1.064728 0.079681,2.091309 0.28125,3.15625c1.009888,5.35257 -0.374817,10.878906 -3.789276,15.122894c-3.414398,4.243988 -8.516083,6.779938 -13.960724,6.939606c-18.550049,0.537384 -34.915771,5.576904 -45.3125,12.03125c-10.396729,6.454346 -13.625031,12.736145 -13.625031,17.374992c0,4.778625 3.524139,11.412781 14.625031,18c11.100891,6.587234 28.425751,11.46875 47.812469,11.46875c8.008026,0 15.677185,-0.829483 22.750031,-2.28125c4.866638,-0.996033 9.929535,-0.005905 14.062469,2.75c12.943451,8.628601 34.367279,15.21875 58.531281,15.21875c34.722778,0 62.875977,-14.772324 70.5,-26.656235c4.95459,-7.701553 14.774063,-10.656662 23.156265,-6.968765c6.734558,2.971558 14.953552,4.8125 23.84375,4.8125c13.286316,0 24.982788,-4.173462 32.53125,-9.8125c7.548462,-5.639023 10.625,-11.721611 10.625,-17.718742c0,-9.135803 -8.485352,-19.922607 -25.59375,-25.03125c-5.129913,-1.531067 -9.35257,-5.196228 -11.589844,-10.059753c-2.237366,-4.863586 -2.272949,-10.454865 -0.097656,-15.346497c1.636902,-3.686859 2.40625,-7.259369 2.40625,-11c0,-9.543884 -4.989197,-18.841675 -15.65625,-26.8125c-10.667053,-7.970825 -26.685913,-13.59375 -44.718765,-13.59375z"/>
    <path fill="#e4eaed" fill-rule="nonzero" stroke-width="0.5" stroke-linejoin="round" stroke-miterlimit="4" stroke-dashoffset="0" id="path3810" d="m110.704498,176.322083c0,0 37.656921,-19.725006 41.713196,-21.096191c-8.838867,8.48526 -31.273865,26.81369 -31.273865,26.81369l-10.439331,-5.717499z"/>
    <path fill="#e4eaed" fill-rule="nonzero" stroke-width="0.5" stroke-linejoin="round" stroke-miterlimit="4" stroke-dashoffset="0" d="m265.204498,156.822052c0,0 16.156921,-21.224976 20.213196,-22.596161c-8.838867,8.48526 -9.773865,28.31369 -9.773865,28.31369l-10.439331,-5.717529z" id="path3812"/>
    <path fill="#e4eaed" fill-rule="nonzero" stroke-width="0.5" stroke-linejoin="round" stroke-miterlimit="4" stroke-dashoffset="0" id="path3814" d="m326.417694,82.94339c0,0 -16.156921,21.225006 -20.213196,22.596191c8.838806,-8.48526 9.773865,-28.313721 9.773865,-28.313721l10.439331,5.717529z"/>
    <path fill="#e4eaed" fill-rule="nonzero" stroke-width="0.5" stroke-linejoin="round" stroke-miterlimit="4" stroke-dashoffset="0" d="m133.298126,112.934753c0,0 87.618835,-56.982727 113.074646,-6.071045c-30.162964,-42.698486 -111.6604,6.071045 -113.074646,6.071045z" id="path3816"/>
    <path fill="#eeeeec" fill-rule="nonzero" stroke-width="0.5" stroke-linejoin="round" stroke-miterlimit="4" stroke-dashoffset="0" d="m244.452301,101.611572c0,0 -35.067322,-25.441406 -35.5,-33.5c-16,6.5 36.5,34 35.5,33.5z" id="path3820"/>
   </g>
  </g>
 </g>
</svg>