<?xml version="1.0" encoding="UTF-8" standalone="no"?>
<svg
   xmlns:dc="http://purl.org/dc/elements/1.1/"
   xmlns:cc="http://web.resource.org/cc/"
   xmlns:rdf="http://www.w3.org/1999/02/22-rdf-syntax-ns#"
   xmlns:svg="http://www.w3.org/2000/svg"
   xmlns="http://www.w3.org/2000/svg"
   xmlns:sodipodi="http://sodipodi.sourceforge.net/DTD/sodipodi-0.dtd"
   xmlns:inkscape="http://www.inkscape.org/namespaces/inkscape"
   width="310.96"
   height="367.914"
   id="svg2"
   sodipodi:version="0.32"
   inkscape:version="0.44.1"
   sodipodi:docname="tux-vinyl.svg"
   sodipodi:docbase="/home/aleli/Desktop">
  <metadata
     id="metadata107">
    <rdf:RDF>
      <cc:Work
         rdf:about="">
        <dc:format>image/svg+xml</dc:format>
        <dc:type
           rdf:resource="http://purl.org/dc/dcmitype/StillImage" />
      </cc:Work>
    </rdf:RDF>
  </metadata>
  <sodipodi:namedview
     inkscape:window-height="937"
     inkscape:window-width="1272"
     inkscape:pageshadow="2"
     inkscape:pageopacity="0.00392157"
     guidetolerance="10.0"
     gridtolerance="10.0"
     objecttolerance="10.0"
     borderopacity="1.0"
     bordercolor="#666666"
     pagecolor="white"
     id="base"
     inkscape:zoom="1.3821315"
     inkscape:cx="233.23936"
     inkscape:cy="159.4418"
     inkscape:window-x="0"
     inkscape:window-y="34"
     inkscape:current-layer="svg2"
     borderlayer="false"
     inkscape:showpageshadow="true" />
  <defs
     id="defs4">
    <marker
       id="ArrowEnd"
       viewBox="0 0 10 10"
       refX="0"
       refY="5"
       markerUnits="strokeWidth"
       markerWidth="4"
       markerHeight="3"
       orient="auto">
      <path
         d="M 0 0 L 10 5 L 0 10 z"
         id="path7" />
    </marker>
    <marker
       id="ArrowStart"
       viewBox="0 0 10 10"
       refX="10"
       refY="5"
       markerUnits="strokeWidth"
       markerWidth="4"
       markerHeight="3"
       orient="auto">
      <path
         d="M 10 0 L 0 5 L 10 10 z"
         id="path10" />
    </marker>
  </defs>
  <g
     id="g12" />
  <g
     id="g1974"
     transform="translate(-340,0)">
    <path
       d="M 481.25,81.65625 C 471.01227,81.937163 463.85755,90.781182 456.28125,96.625 C 452.63661,98.766099 451.60758,102.61936 452.34375,106.28125 C 452.67288,106.14393 453.11299,106.14362 453.34375,106.21875 C 454.73475,107.11775 458.827,111.02275 461.125,112.46875 C 461.775,113.04875 463.42775,114.023 465.09375,114.625 C 467.81775,115.607 470.69325,116.65625 473.28125,116.65625 C 475.51025,116.65625 479.27825,116.711 482.15625,116.5 C 485.17425,116.281 489.18975,114.70525 492.21875,113.40625 C 498.83475,110.52825 503.38501,108.028 510,104 C 516.837,99.8916 518.911,98.389752 521,99.46875 C 523.09,100.47815 517.121,103.93475 512.375,106.59375 C 507.477,109.40175 505.82125,110.77075 498.90625,114.21875 C 491.85925,117.60675 485.147,119.8125 479.75,119.8125 C 477.452,119.8125 473.933,119.96875 470.125,119.46875 C 470.125,119.46875 466.1475,118.546 464.5625,117.75 C 461.8685,116.4 458.8125,114.41225 456.3125,112.40625 C 455.39008,111.66588 454.56325,110.97221 453.875,110.21875 C 454.54157,111.33557 455.36908,112.33601 456.34375,113.15625 C 462.44363,118.22472 467.74087,124.1829 474.1875,128.625 C 483.40306,131.03415 493.37373,129.64171 501,123.71875 C 506.79017,119.19936 513.39817,116.4282 519.875,113.34375 C 524.36648,109.82044 526.23621,102.71712 524.5625,97.375 C 517.30918,89.667663 504.50756,91.797794 496.75,84.53125 C 492.86905,82.026352 487.86913,81.542959 483.34375,81.71875 C 482.63283,81.657945 481.93252,81.637522 481.25,81.65625 z M 488.71875,86 C 490.0955,85.9925 491.67875,86.203 492.21875,86.5625 C 493.36775,87.2825 494.2125,89.367502 493.0625,89.9375 C 492.5645,90.2275 491.8605,90.095002 490.5625,89.375 C 489.1925,88.576 487.164,88.370251 486.375,86.78125 C 486.155,86.24175 487.342,86.0075 488.71875,86 z M 474.78125,86.65625 C 476.8225,86.535718 477.16788,87.267122 475.59375,88.28125 C 475.15375,88.56125 474.00901,89.36725 473,90.15625 C 472.14,91.01725 470.34249,89.805253 470.5625,89.15625 C 470.8415,88.50625 470.8535,87.360251 473.8125,86.78125 C 474.17225,86.727625 474.48964,86.673469 474.78125,86.65625 z M 395.9375,251.8125 C 384.89958,253.58723 381.37154,266.58018 374,273.4375 C 366.35692,281.99617 352.90337,278.76891 344.28125,285.375 C 340.80945,292.50723 345.09181,300.59286 344.65625,308.1875 C 345.9038,317.51004 341.88073,326.52533 342.21875,335.65625 C 345.25004,344.33886 356.35968,344.40966 363.75981,346.86096 C 381.4803,350.34646 399.2038,354.38967 415.90219,361.5818 C 425.67326,365.39132 438.98408,369.54347 447.21875,360.375 C 451.06072,355.44472 459.53212,353.28296 458.90625,345.96875 C 460.52389,336.00201 455.33257,326.96603 448.6878,320.00038 C 431.78855,299.00623 421.829,272.12634 401.6875,253.90625 C 400.05019,252.70792 398.18856,251.45067 395.9375,251.8125 z M 557.96875,259 C 553.73461,258.71131 549.27962,261.38075 550.2154,266.15152 C 549.49873,285.66207 550.6625,305.38984 546.06893,324.55528 C 543.90201,336.48133 540.85469,351.21673 549.75,361.125 C 558.09841,367.42222 569.94812,366.51711 579.53125,364.09375 C 589.74285,360.13217 595.71583,350.14556 604.96875,344.65625 C 617.46261,334.75048 632.26271,328.33703 645.125,319.09375 C 650.1734,315.94536 650.5392,307.2455 644.0938,305.28125 C 634.94258,299.34909 625.86582,291.91147 621,281.9375 C 619.29291,275.84973 623.51086,267.11214 617.25,263.0625 C 611.38892,261.15517 610.60793,269.22549 607.15625,272.1875 C 600.71265,279.02687 591.76006,285.21263 581.8125,283 C 575.07963,282.20554 567.70422,277.56985 566.09375,270.71875 C 565.14367,267.22507 568.32463,262.33764 565.5625,259.65625 C 563.1756,258.73539 560.4763,259.03387 557.96875,259 z "
       style="fill:#ffb400;fill-opacity:1;stroke:none"
       id="path2117" />
    <path
       d="M 547.25,300.84375 C 545.81984,302.35691 544.19791,304.00906 542.3125,305.84375 C 531.9495,315.84775 517.614,326.19825 499.125,329.65625 C 473.1079,334.50651 461.2884,329.96314 456.5625,326.9375 C 459.21166,330.92683 460.87402,334.98578 460.96875,340.8125 C 461.11408,349.79804 460.16866,351.97454 457.53125,354.21875 C 469.67349,348.76097 466.60957,350.50913 489.40625,349.15625 C 513.42992,347.73915 520.25359,346.60814 543,352.625 C 542.16254,349.48824 541.67091,345.76867 541.8125,341.46875 C 542.0925,330.60474 545.5275,320.661 547.1875,303.75 C 547.27992,302.81741 547.35869,301.85615 547.42588,300.87206 C 547.42942,300.82021 547.43486,300.7684 547.4364,300.71633 L 547.25,300.84375 z M 540.03125,109.0625 C 540.9192,108.95388 542.04438,109.42 543.4375,110.8125 C 545.7455,113.0415 548.28075,112.271 550.21875,114.5 C 552.15875,116.73 554.659,119.90325 551.5,123.28125 C 549.841,125.08025 547.3405,125.05925 543.3125,121.03125 C 539.2045,116.86425 538.0385,110.5325 538.6875,109.8125 C 539.04038,109.40788 539.49848,109.12767 540.03125,109.0625 z M 493.375,0 C 484.70288,0.052001274 474.70266,2.0086481 464,7.5625 C 436.3757,21.9555 439.9727,53.034846 444.5,115.28125 C 445.65,132.05225 430.09085,143.51925 415.71875,165.15625 C 403.87975,182.97825 396.2494,201.50124 389.8125,217.53125 C 382.0215,236.92625 381.24315,238.9965 385.28125,255.6875 C 388.62605,252.33716 391.88246,249.65323 397.3125,249.78125 C 404.7285,250.00225 417.67175,268.55625 424.21875,278.78125 C 430.76385,289.13625 432.35445,292.00401 442.21875,307.625 C 442.68111,308.35745 443.13734,309.03505 443.59375,309.71875 C 447.50801,309.60798 454.75984,308.92547 457.09375,305.46875 C 460.34475,300.65675 458.4725,295.19901 456.3125,291.75 C 454.2935,288.362 439.321,277.42324 432.125,271.15625 C 425.288,265.11925 420.818,261.723 416.5,258.125 C 414.87547,256.79295 413.84075,256.10774 413.15625,255.1875 C 413.14597,255.17764 413.13531,255.16616 413.125,255.15625 C 410.07883,252.22572 405.75353,246.85852 404.59375,244.3125 C 402.26465,239.20049 401.20025,233.177 402.15625,224.625 C 403.46325,212.933 407.3951,203.675 412,193.875 C 413.59937,190.47 418.08627,182.07562 419.34375,181.84375 C 419.42758,181.82829 419.50938,181.84506 419.5625,181.90625 C 420.6376,183.14626 416.65525,186.02875 411.28125,198.96875 C 406.28725,210.99176 404.47625,216.1725 403.65625,225.4375 C 402.94125,233.51651 404.11525,240.19175 406.40625,244.84375 C 407.60369,247.27744 409.99985,250.06665 412.125,252.375 C 411.85396,250.71196 411.75303,248.2817 411.625,244.25 C 411.165,229.781 414.14475,222.8565 416.59375,212.0625 C 418.6318,202.98074 426.28052,192.15967 430.46875,182.5 C 433.34694,179.86114 434.889,177.8076 437.40625,176.375 C 442.26855,173.609 449.1015,172.67151 449.5625,170.6875 C 450.0235,168.7025 441.2883,167.58774 439.5,161.59375 C 438.91258,159.62442 439.32952,157.679 439.96875,155.34375 C 441.2225,152.6846 442.62928,150.09383 444.21875,147.59375 C 450.12575,138.59875 452.84375,138.16449 452.84375,132.1875 C 452.84375,123.2625 453.15825,123.36875 454.28125,114.21875 C 454.28563,114.18312 454.30782,114.15968 454.3125,114.125 C 450.24711,109.49662 448.29021,102.66503 452.34375,97.4375 C 454.14698,96.009541 455.91011,94.43137 457.6875,92.84375 C 455.98465,91.296531 454.49793,89.11489 453.5625,86.375 C 451.6245,80.619001 450.906,77.369002 451.125,68.875 C 451.195,65.707 452.045,62.690501 453.125,60.3125 C 454.783,56.7945 457.256,54.414001 459.125,54.125 C 459.9345,53.98275 460.85247,53.896875 461.84375,53.90625 C 464.81759,53.934375 468.35275,54.868499 470.78125,58.21875 C 474.16925,62.89775 476.37501,65.335253 476.375,72.53125 C 476.40867,76.063994 476.18014,78.45539 475.65625,80.53125 L 475.65625,80.5625 C 475.70768,80.546379 475.79217,80.60954 475.84375,80.59375 C 477.21976,80.172599 478.63427,79.879133 480.125,79.71875 C 481.47208,79.691373 482.82222,79.650935 484.1875,79.65625 C 486.89547,79.666791 489.61173,79.828299 492.21875,80.46875 C 491.73583,78.721694 491.39609,76.723125 491.34375,74.1875 C 491.20475,67.2815 490.6955,68.091998 493.0625,62.625 C 495.15313,57.902813 499.48099,51.390108 508.3125,51.3125 C 508.90127,51.307326 509.49537,51.320688 510.125,51.375 C 516.673,51.875 519.27449,53.194002 523.8125,61.25 C 528.6285,69.665 528.5415,76.866746 526.8125,83.34375 C 525.77816,87.224511 524.22087,90.2176 521.34375,92.34375 L 521.25,92.40625 C 521.42849,92.499443 521.60406,92.59035 521.78125,92.6875 C 527.73835,94.896811 528.00485,102.02154 526.3125,107.125 C 525.99672,108.49384 525.4661,109.66523 524.8125,110.71875 C 527.41541,114.4273 527.63091,121.49017 533.3125,130.53125 C 541.0085,142.61425 540.58275,151.11125 549.21875,170.03125 C 553.53675,179.53525 558.55075,186.87099 561.71875,197.375 C 565.17575,208.609 566.90625,223.87176 566.90625,238.84375 C 566.90625,243.43779 566.1053,252.06058 565.3125,257.4375 C 566.31194,257.71268 567.07413,258.1413 567.71875,258.78125 C 569.15776,260.22126 568.5605,263.5105 568.0625,268.1875 C 567.6215,272.86549 569.86475,274.39475 572.09375,276.34375 C 574.32275,278.21176 576.329,280.58725 583.375,281.15625 C 590.431,281.66724 593.03575,280.5175 596.34375,278.4375 C 599.65274,276.3495 604.3335,272.5965 606.0625,270.4375 C 607.72149,268.35949 611.80475,261.15625 612.59375,261.15625 C 612.91729,261.15624 614.07154,260.82841 615.46875,260.8125 C 617.80141,255.39829 619.61973,250.47542 620.59375,246.46875 C 626.06175,224.30075 608.93225,185.96676 592.53125,162.71875 C 576.12025,139.47175 562.65725,125.07315 556.03125,95.71875 C 549.34525,66.28575 557.68725,74.78975 551.78125,49.09375 C 548.90325,36.29075 543.811,26.124501 538.125,19.4375 C 532.448,12.6015 524.8005,8.7065399 521.0625,6.6875 C 515.89391,3.9105313 506.04964,-0.076001862 493.375,0 z M 517.5625,18.1875 C 518.03402,18.179391 518.45625,18.20125 518.78125,18.21875 C 520.07025,18.36975 523.22625,22.02075 523.65625,24.96875 C 523.94525,26.98775 516.25276,30.7425 514.09375,29.8125 C 511.85575,28.9435 512.88,20.29125 513.75,19.28125 C 514.34175,18.4195 516.14795,18.211828 517.5625,18.1875 z M 515.34375,46.6875 C 516.37998,46.670615 518.01875,46.916251 519.4375,47.5 C 521.7055,48.435 525.28651,52.248249 526.4375,53.90625 C 527.5885,55.56625 529.1645,58.552999 528.4375,58.75 C 527.7135,58.945 525.53375,54.495002 524.34375,53.125 C 523.15375,51.754 520.1125,49.095001 518.8125,48.625 C 517.5125,48.154 514.3475,47.580001 514.3125,47 C 514.299,46.783625 514.72201,46.697631 515.34375,46.6875 z M 465.53125,48.90625 C 466.80517,48.725726 470.47213,49.918814 472.78125,51.96875 C 476.41025,55.18875 478.05675,58.584501 476.96875,58.6875 C 475.88275,58.7905 475.4885,56.064 471.9375,53 C 468.4615,50.001 465.1065,50.317251 465.0625,49.28125 C 465.05463,49.087375 465.23727,48.947909 465.53125,48.90625 z M 533.90625,165.75 C 526.88144,166.04609 513.34856,168.54144 513,170.125 C 512.64,172.063 525.6825,173.268 535.6875,177.875 C 545.6115,182.482 551.8885,192.065 554.6875,191.125 C 557.5655,190.187 541.06675,167.0175 537.46875,165.9375 C 536.77931,165.73519 535.52736,165.68167 533.90625,165.75 z M 469.59375,167.21875 C 469.4606,167.2411 469.38888,167.27638 469.34375,167.375 C 468.84375,168.316 470.41851,168.108 472.9375,170.625 C 473.9465,171.775 474.37375,173.21125 475.09375,173.28125 C 475.96275,173.36125 477.60775,171.90876 477.96875,171.46875 C 479.55675,169.88875 484.72651,168.25 484.4375,167.75 C 484.1465,167.03 476.33,168.67275 475.25,168.59375 C 473.423,168.53162 470.52583,167.06229 469.59375,167.21875 z M 561.46875,173.1875 C 563.02716,172.89994 571.28656,178.11282 573.875,180.84375 C 583.16,190.64375 587.4885,200.32575 589.1875,211.96875 C 591.1185,225.20075 585.92199,240.9445 583.75,245.8125 C 583.34753,246.71501 583.03916,247.26321 582.71875,247.78125 C 584.18026,247.66931 585.61787,247.65773 586.8125,247.71875 C 590.47249,247.90774 594.625,248.53125 594.625,248.53125 C 594.625,248.53125 598.29625,249.0785 601.65625,250.4375 C 605.01824,251.7965 609.33325,254.35525 609.53125,256.90625 C 609.73026,259.45726 608.20475,258.48675 606.71875,256.21875 C 605.23274,253.94876 602.37075,252.2455 598.84375,251.0625 C 595.31574,249.8795 590.21425,249.375 588.15625,249.25 C 586.09824,249.124 580.8495,249.0815 577.8125,250.0625 C 574.7755,251.0435 573.185,253.3825 571.75,253.6875 C 570.314,253.9905 572.32375,251.375 574.84375,249.75 C 576.2751,248.82684 578.75641,248.23684 581.3125,247.9375 C 581.95706,246.3391 583.54481,242.5857 584.75,238.59375 C 586.284,233.52075 586.8775,230.62526 587.9375,223.03125 C 589.4935,211.89525 585.569,198.037 577.75,187.625 C 569.062,176.05 560.76,174.19274 561.25,173.34375 C 561.2905,173.27356 561.36486,173.20667 561.46875,173.1875 z M 467.664,215.105 C 469.533,215.464 466.55,228.986 466.411,242.879 C 466.26,256.771 468.883,262.738 467.664,264.107 C 466.434,265.476 463.266,258.93 463.416,245.038 C 463.556,231.145 465.785,214.675 467.664,215.105 z M 509.40625,65.4375 C 507.09725,65.4375 504.39301,65.788498 502.875,67.4375 C 500.866,69.6655 499.6875,72.479502 499.6875,76.4375 C 499.6875,78.999275 499.88515,82.301123 500.59375,84.78125 C 502.40472,85.938194 504.05387,86.734889 505.96875,87.375 C 507.43165,87.854459 508.95411,88.286237 510.5,88.71875 C 512.9317,88.261355 515.53891,86.80447 517.125,84.6875 C 518.855,82.4575 519.50251,79.244502 519.0625,76.4375 C 517.9835,70.2505 514.80324,65.4375 509.40625,65.4375 z M 461.625,65.6875 C 459.316,65.6875 457.674,66.637251 456.375,68.65625 C 454.506,71.38425 455,74.498251 455,76.65625 C 455,80.10425 457.3985,84.265001 458.1875,85.125 C 460.16664,87.163286 460.59205,88.62695 462.21875,89 C 464.45681,87.136937 467.15237,85.02249 469.65625,83.375 C 470.08055,81.377043 470.1875,79.056478 470.1875,76.84375 C 470.1875,73.75575 469.1805,71.03275 467.8125,69.09375 C 466.5125,67.14475 463.784,65.687501 461.625,65.6875 z M 511.09375,68.59375 C 511.74433,68.582923 512.72325,69.18075 513.75,70.3125 C 515.188,71.902499 515.158,73.1935 514,74.0625 C 512.92,74.992498 512.50125,72.6825 511.78125,71.8125 C 510.49225,70.523496 509.4135,69.8915 510.5625,68.8125 C 510.705,68.6675 510.87689,68.597359 511.09375,68.59375 z M 463.125,69.03125 C 463.89045,69.027334 464.88563,69.449375 465.4375,70.375 C 466.3145,71.909003 466.43975,75.44175 465.96875,75.59375 C 464.71975,76.075749 464.8315,73.9615 463.6875,72.5625 C 462.6045,71.151503 461.714,70.30975 462.125,69.46875 C 462.27837,69.173251 462.66573,69.033599 463.125,69.03125 z "
       style="fill:black;stroke:none"
       id="path2250" />
  </g>
</svg>
